# xmcd
#
# Track frame offsets:
#	150
#	13335
#	24337
#	34395
#	45187
#	59835
#	71530
#	81152
#	98457
#	113480
#	122452
#	136317
#	149412
#	161990
#	180070
#	197125
#	210147
#	220285
#	229760
#	244655
#
# Disc length: 3425 seconds
#
# Revision: 0
# Processed by: cddbd v1.5.2PL0 Copyright (c) Steve Scherf et al.
# Submitted via: dBpowerAMP V4.0
#
DISCID=0c0d5f14
DTITLE=Various Artist - 20 Super Sucessos Country
DYEAR=1900
DGENRE=Country
TTITLE0=I´m so lonesome, I could cry
TTITLE1=Dream on Texas ladies
TTITLE2=Out of my head, back im my bed
TTITLE3=Singing the blues
TTITLE4=Crystal Chandeliers
TTITLE5=Take these chains from my heart
TTITLE6=Pick up the pieces
TTITLE7=Not a day goes by
TTITLE8=Green green grass of home
TTITLE9=Hello walls
TTITLE10=Sylvie Marie
TTITLE11=Ruby don´t take your love to town
TTITLE12=I just don´t understand
TTITLE13=Waycross Georgia blues
TTITLE14=I Don´t know what love is
TTITLE15=Ain´t your memory got no place to go
TTITLE16=The hanging tree
TTITLE17=Alone with you
TTITLE18=Oh Naomi
TTITLE19=That´s all it took
EXTD=
EXTT0=
EXTT1=
EXTT2=
EXTT3=
EXTT4=
EXTT5=
EXTT6=
EXTT7=
EXTT8=
EXTT9=
EXTT10=
EXTT11=
EXTT12=
EXTT13=
EXTT14=
EXTT15=
EXTT16=
EXTT17=
EXTT18=
EXTT19=
PLAYORDER=
